<svg width="243pt" height="235pt" viewBox="0.00 0.00 243.39 234.72" xmlns="http://www.w3.org/2000/svg" xmlns:xlink="http://www.w3.org/1999/xlink">
<g class="graph" transform="scale(1 1) rotate(0) translate(4 230.7203)">
<title>G</title>
<!-- A -->
<g class="node">
<title>A</title>
<ellipse fill="none" stroke="var(--text-color)" cx="27" cy="-172.296" rx="27" ry="18"/>
<text text-anchor="middle" x="27" y="-168.096" font-family="Times,serif" font-size="14.00" fill="var(--text-color)">A</text>
</g>
<!-- B -->
<g class="node">
<title>B</title>
<ellipse fill="none" stroke="var(--text-color)" cx="27" cy="-54.4243" rx="27" ry="18"/>
<text text-anchor="middle" x="27" y="-50.2243" font-family="Times,serif" font-size="14.00" fill="var(--text-color)">B</text>
</g>
<!-- A&#45;&gt;B -->
<g class="edge">
<title>A-&gt;B</title>
<path fill="none" stroke="var(--text-color)" d="M27,-154.1369C27,-132.0512 27,-94.9806 27,-72.7983"/>
</g>
<!-- C -->
<g class="node">
<title>C</title>
<ellipse fill="none" stroke="var(--text-color)" cx="208.3858" cy="-113.3602" rx="27" ry="18"/>
<text text-anchor="middle" x="208.3858" y="-109.1602" font-family="Times,serif" font-size="14.00" fill="var(--text-color)">C</text>
</g>
<!-- A&#45;&gt;C -->
<g class="edge">
<title>A-&gt;C</title>
<path fill="none" stroke="var(--text-color)" d="M51.4625,-164.3476C86.1779,-153.0679 149.3605,-132.5387 184.0219,-121.2765"/>
</g>
<!-- D -->
<g class="node">
<title>D</title>
<ellipse fill="none" stroke="var(--text-color)" cx="139.1026" cy="-208.7203" rx="27" ry="18"/>
<text text-anchor="middle" x="139.1026" y="-204.5203" font-family="Times,serif" font-size="14.00" fill="var(--text-color)">D</text>
</g>
<!-- A&#45;&gt;D -->
<g class="edge">
<title>A-&gt;D</title>
<path fill="none" stroke="var(--text-color)" d="M51.3246,-180.1995C70.128,-186.3091 96.0341,-194.7265 114.8255,-200.8322"/>
</g>
<!-- E -->
<g class="node">
<title>E</title>
<ellipse fill="none" stroke="var(--text-color)" cx="139.1026" cy="-18" rx="27" ry="18"/>
<text text-anchor="middle" x="139.1026" y="-13.8" font-family="Times,serif" font-size="14.00" fill="var(--text-color)">E</text>
</g>
<!-- A&#45;&gt;E -->
<g class="edge">
<title>A-&gt;E</title>
<path fill="none" stroke="var(--text-color)" d="M38.7851,-156.0752C60.2591,-126.5188 105.5322,-64.2057 127.138,-34.4678"/>
</g>
<!-- B&#45;&gt;D -->
<g class="edge">
<title>B-&gt;D</title>
<path fill="none" stroke="var(--text-color)" d="M38.7851,-70.6451C60.2591,-100.2015 105.5322,-162.5146 127.138,-192.2525"/>
</g>
<!-- B&#45;&gt;E -->
<g class="edge">
<title>B-&gt;E</title>
<path fill="none" stroke="var(--text-color)" d="M51.3246,-46.5208C70.128,-40.4112 96.0341,-31.9938 114.8255,-25.8881"/>
</g>
<!-- C&#45;&gt;D -->
<g class="edge">
<title>C-&gt;D</title>
<path fill="none" stroke="var(--text-color)" d="M196.3176,-129.9706C183.6011,-147.4734 163.6966,-174.8696 151.0325,-192.3002"/>
</g>
<!-- C&#45;&gt;E -->
<g class="edge">
<title>C-&gt;E</title>
<path fill="none" stroke="var(--text-color)" d="M196.3176,-96.7497C183.6011,-79.247 163.6966,-51.8507 151.0325,-34.4201"/>
</g>
</g>
</svg>
